<!--?xml version="1.0" encoding="utf-8"?-->
<!-- Generator: Adobe Illustrator 18.0.0, SVG Export Plug-In . SVG Version: 6.00 Build 0)  -->

<svg version="1.1" id="_x32_" xmlns="http://www.w3.org/2000/svg" xmlns:xlink="http://www.w3.org/1999/xlink" x="0px" y="0px" viewBox="0 0 512 512" style="width: 48px; height: 48px; opacity: 1;" xml:space="preserve">
<style type="text/css">
	.st0{fill:#4B4B4B;}
</style>
<g>
	<polygon class="st0" points="512,295.199 445.92,226.559 512,169.6 	" style="fill: rgb(255, 255, 255);"></polygon>
	<polygon class="st0" points="66.16,226.559 0,295.279 0,169.6 	" style="fill: rgb(255, 255, 255);"></polygon>
	<path class="st0" d="M512,357.6v63.199c0,15.281-12.4,27.682-27.68,27.682H27.68c-15.281,0-27.68-12.4-27.68-27.682V357.6
		l98.959-102.721L212,352.238c11.76,10.082,27.359,15.682,44,15.682c16.641,0,32.32-5.6,44.08-15.682l112.959-97.359L512,357.6z" style="fill: rgb(255, 255, 255);"></path>
	<path class="st0" d="M512,91.119v27.68l-241.442,208c-7.76,6.72-21.359,6.72-29.119,0L0,118.799v-27.68
		c0-15.279,12.398-27.6,27.68-27.6H484.32C499.6,63.519,512,75.84,512,91.119z" style="fill: rgb(255, 255, 255);"></path>
</g>
</svg>
