<?xml version="1.0" encoding="UTF-8"?><svg id="_レイヤー_2" xmlns="http://www.w3.org/2000/svg" viewBox="0 0 512 343.97"><g id="_2"><g><path d="m393.58,184.97c-11.34,0-20.53,9.19-20.53,20.53s9.19,20.54,20.53,20.54,20.54-9.2,20.54-20.54c0-11.34-9.2-20.53-20.54-20.53Z"/><path d="m440.44,52.65h-215.43c3.34-5.72,5.22-11.36,6.27-15.89.68-2.93,1.01-5.44,1.19-7.25.18-1.81.18-2.98.18-3.15v-7.85h-63.02c-5.78-9.15-15.16-15.82-26.28-17.86h.02c-2.37-.44-4.78-.66-7.19-.66h-39.74c-7.96,0-15.41,2.38-21.61,6.44-4.76,3.12-8.78,7.25-11.82,12.07H0v7.85c0,.14,0,1.1.13,2.55.12,1.48.36,3.53.84,5.96.71,3.63,1.94,8.18,4.16,13.03,3.3,7.24,8.89,15.22,18.01,21.28h0c7.57,5.04,17.45,8.56,29.79,9.61v42.82c.02,7.96,2.52,15.7,6.53,22.73,3.82,6.77,9.05,12.93,15.11,18.22l.03.05.08.06c5.79,5.01,12.39,9.22,19.43,12.23,7.04,3.01,14.57,4.83,22.2,4.83s14.82-1.74,21.72-4.62c1.42,2.4,2.79,4.75,4.04,6.95,2.73,4.81,4.99,9.03,6.59,12.05.68,1.29,1.23,2.36,1.64,3.14v146.72h68.43v-91.63c4.09,2.7,9.09,5.69,15.07,8.69,18.43,9.22,45.9,18.33,82.13,18.42h.03s104.57,0,104.57,0h24.01v64.52h67.45V124.19c-.02-39.52-32.05-71.53-71.56-71.54ZM115.94,137.07c-13.39,0-25.35,6.13-33.24,15.73-5.01-4.4-9.25-9.48-12.2-14.74v-.02s-.24-.41-.24-.41c23.9-17.78,39.82-49.47,39.82-85.62,0-13.94-2.37-27.23-6.64-39.3h32.75c1.44,0,2.86.14,4.22.35-3.16,10.56-4.91,22.05-4.91,34.07,0,32.07,12.43,60.39,31.35,77.31-.09.86-.23,1.75-.41,2.62v.02c-.93,4.51-2.99,9.24-5.97,13.75-2.91,4.42-6.68,8.64-10.98,12.33-7.88-9.8-19.99-16.1-33.54-16.1Zm383.35,43.33c-12.24,1.84-21.63,12.36-21.63,25.1s9.39,23.27,21.63,25.11v84.38h-42.04v-48.25h-140.78c-34.36,0-59.97-8.59-76.98-17.09-8.5-4.25-14.86-8.49-19.05-11.63-2.09-1.58-3.64-2.88-4.66-3.76-.5-.45-.88-.78-1.11-1.01l-.25-.24-.06-.05-8.34-8.34v90.36h-43.02v-44.11c18.19-6.79,31.14-24.3,31.14-44.84,0-23.51-16.93-43.05-39.27-47.11-.56-1.01-1.14-2.05-1.75-3.12-1.65-2.88-3.45-6-5.36-9.18,2.7-1.75,5.31-3.66,7.75-5.74l-.21.18.2-.17c5.11-4.33,9.59-9.3,13.13-14.68,3.54-5.37,6.14-11.17,7.37-17.14v-.02c.51-2.46.79-4.96.79-7.44v-45.51c11.59-.61,20.85-3.41,28.12-7.53,1.76-1.01,3.38-2.08,4.91-3.21h13.7c-2.19,13.06,14.82,31.62,11.69,46.28-11.73,54.75,20.42,89.95,64.51,89.95s68.44-43.02,71.01-95.44c.74-14.88-3.89-28.84-11.15-40.78h34.14c-.1,1.73-.15,3.47-.15,5.23,0,51.82,42.02,93.85,93.85,93.85,4.01,0,7.97-.26,11.86-.76v16.71h0Z"/></g></g></svg>